# xmcd CD database file
#
# Track frame offsets:
#	150
#	26825
#	46620
#	61282
#	87437
#	110607
#	127390
#	147297
#	167920
#	183575
#	202501
#	221412
#	239757
#	260500
#
# Disc length: 3743 seconds
#
# Revision: 6
# Processed by: cddbd v1.5.2PL0 Copyright (c) Steve Scherf et al.
# Submitted via: Feurio! 1.68 - http://www.feurio.com
#
DISCID=d10e9d0e
DTITLE=Phil Coulter - Lake Of Shadows
DYEAR=2001
DGENRE=Ethnic
TTITLE0=Lake Of Shadows (影之湖)
TTITLE1=Sunlight On The Water水中阳光
TTITLE2=Farewell To Inishowen别了，因尼什文
TTITLE3=The Flight Of The Earls (伯爵溃逃)
TTITLE4=The Star Of The Sea (海洋之星)
TTITLE5=The Lough Swilly Railway洛克・斯威利铁路
TTITLE6=For Those In Peril On The Sea (献给海上遇险的人们)
TTITLE7=The Lonesome Boatman孤独的船夫
TTITLE8=The Year Of The French法国人之年
TTITLE9=The Shores Of The Swilly (斯威利湖边)
TTITLE10=Back To The Island重返故乡
TTITLE11=Vive La Hoche拉霍切万岁
TTITLE12=Prayer For The Fishermen (为渔夫祈祷)
TTITLE13=Take Me Home带我回家 
EXTD=
EXTT0=
EXTT1=
EXTT2=
EXTT3=
EXTT4=
EXTT5=
EXTT6=
EXTT7=
EXTT8=
EXTT9=
EXTT10=
EXTT11=
EXTT12=
EXTT13=
PLAYORDER=
